<svg id="Capa_1" enable-background="new 0 0 512 512" height="512" viewBox="0 0 512 512" width="512" xmlns="http://www.w3.org/2000/svg"><g><path d="m468.334 219.616c1.726 0 3.125-1.399 3.125-3.125s-1.399-3.125-3.125-3.125-3.125 1.399-3.125 3.125c.001 1.726 1.4 3.125 3.125 3.125z"/><path d="m468.334 239.761c1.726 0 3.125-1.399 3.125-3.125s-1.399-3.125-3.125-3.125-3.125 1.399-3.125 3.125c.001 1.726 1.4 3.125 3.125 3.125z"/><path d="m468.334 259.907c1.726 0 3.125-1.399 3.125-3.125s-1.399-3.125-3.125-3.125-3.125 1.399-3.125 3.125c.001 1.725 1.4 3.125 3.125 3.125z"/><path d="m468.334 280.052c1.726 0 3.125-1.399 3.125-3.125s-1.399-3.125-3.125-3.125-3.125 1.399-3.125 3.125 1.4 3.125 3.125 3.125z"/><path d="m468.334 300.197c1.726 0 3.125-1.399 3.125-3.125s-1.399-3.125-3.125-3.125-3.125 1.399-3.125 3.125c.001 1.726 1.4 3.125 3.125 3.125z"/><path d="m468.334 320.343c1.726 0 3.125-1.399 3.125-3.125s-1.399-3.125-3.125-3.125-3.125 1.399-3.125 3.125c.001 1.725 1.4 3.125 3.125 3.125z"/><path d="m448.189 173.075c-1.726 0-3.125 1.399-3.125 3.125s1.399 3.125 3.125 3.125 3.125-1.399 3.125-3.125c0-1.725-1.399-3.125-3.125-3.125z"/><path d="m458.641 189.019c1.726 0 3.125-1.399 3.125-3.125s-1.399-3.125-3.125-3.125c-1.725 0-3.125 1.399-3.125 3.125s1.399 3.125 3.125 3.125z"/><path d="m448.189 193.221c-1.726 0-3.125 1.399-3.125 3.125s1.399 3.125 3.125 3.125 3.125-1.399 3.125-3.125-1.399-3.125-3.125-3.125z"/><path d="m458.641 209.164c1.726 0 3.125-1.399 3.125-3.125s-1.399-3.125-3.125-3.125c-1.725 0-3.125 1.399-3.125 3.125s1.399 3.125 3.125 3.125z"/><path d="m448.189 213.366c-1.726 0-3.125 1.399-3.125 3.125s1.399 3.125 3.125 3.125 3.125-1.399 3.125-3.125-1.399-3.125-3.125-3.125z"/><path d="m458.641 229.309c1.726 0 3.125-1.399 3.125-3.125s-1.399-3.125-3.125-3.125c-1.725 0-3.125 1.399-3.125 3.125s1.399 3.125 3.125 3.125z"/><path d="m448.189 233.512c-1.726 0-3.125 1.399-3.125 3.125s1.399 3.125 3.125 3.125 3.125-1.399 3.125-3.125c0-1.727-1.399-3.125-3.125-3.125z"/><path d="m458.641 249.455c1.726 0 3.125-1.399 3.125-3.125s-1.399-3.125-3.125-3.125c-1.725 0-3.125 1.399-3.125 3.125s1.399 3.125 3.125 3.125z"/><path d="m448.189 253.657c-1.726 0-3.125 1.399-3.125 3.125s1.399 3.125 3.125 3.125 3.125-1.399 3.125-3.125-1.399-3.125-3.125-3.125z"/><path d="m458.641 269.6c1.726 0 3.125-1.399 3.125-3.125s-1.399-3.125-3.125-3.125c-1.725 0-3.125 1.399-3.125 3.125s1.399 3.125 3.125 3.125z"/><path d="m448.189 273.802c-1.726 0-3.125 1.399-3.125 3.125s1.399 3.125 3.125 3.125 3.125-1.399 3.125-3.125-1.399-3.125-3.125-3.125z"/><path d="m458.641 289.745c1.726 0 3.125-1.399 3.125-3.125s-1.399-3.125-3.125-3.125c-1.725 0-3.125 1.399-3.125 3.125s1.399 3.125 3.125 3.125z"/><path d="m448.189 293.948c-1.726 0-3.125 1.399-3.125 3.125s1.399 3.125 3.125 3.125 3.125-1.399 3.125-3.125c0-1.727-1.399-3.125-3.125-3.125z"/><path d="m458.641 309.891c1.726 0 3.125-1.399 3.125-3.125s-1.399-3.125-3.125-3.125c-1.725 0-3.125 1.399-3.125 3.125s1.399 3.125 3.125 3.125z"/><path d="m448.189 314.093c-1.726 0-3.125 1.399-3.125 3.125s1.399 3.125 3.125 3.125 3.125-1.399 3.125-3.125-1.399-3.125-3.125-3.125z"/><path d="m458.641 330.036c1.726 0 3.125-1.399 3.125-3.125s-1.399-3.125-3.125-3.125c-1.725 0-3.125 1.399-3.125 3.125s1.399 3.125 3.125 3.125z"/><path d="m448.189 334.238c-1.726 0-3.125 1.399-3.125 3.125s1.399 3.125 3.125 3.125 3.125-1.399 3.125-3.125-1.399-3.125-3.125-3.125z"/><path d="m458.641 350.181c1.726 0 3.125-1.399 3.125-3.125s-1.399-3.125-3.125-3.125c-1.725 0-3.125 1.399-3.125 3.125s1.399 3.125 3.125 3.125z"/><path d="m448.189 354.384c-1.726 0-3.125 1.399-3.125 3.125s1.399 3.125 3.125 3.125 3.125-1.399 3.125-3.125-1.399-3.125-3.125-3.125z"/><path d="m448.189 374.529c-1.726 0-3.125 1.399-3.125 3.125s1.399 3.125 3.125 3.125 3.125-1.399 3.125-3.125-1.399-3.125-3.125-3.125z"/><path d="m428.044 152.93c-1.726 0-3.125 1.399-3.125 3.125s1.399 3.125 3.125 3.125 3.125-1.399 3.125-3.125-1.399-3.125-3.125-3.125z"/><path d="m438.496 162.624c-1.726 0-3.125 1.399-3.125 3.125s1.399 3.125 3.125 3.125 3.125-1.399 3.125-3.125-1.4-3.125-3.125-3.125z"/><path d="m428.044 173.075c-1.726 0-3.125 1.399-3.125 3.125s1.399 3.125 3.125 3.125 3.125-1.399 3.125-3.125c0-1.725-1.399-3.125-3.125-3.125z"/><path d="m438.496 182.769c-1.726 0-3.125 1.399-3.125 3.125s1.399 3.125 3.125 3.125 3.125-1.399 3.125-3.125-1.4-3.125-3.125-3.125z"/><path d="m428.044 193.221c-1.726 0-3.125 1.399-3.125 3.125s1.399 3.125 3.125 3.125 3.125-1.399 3.125-3.125-1.399-3.125-3.125-3.125z"/><path d="m438.496 202.914c-1.726 0-3.125 1.399-3.125 3.125s1.399 3.125 3.125 3.125 3.125-1.399 3.125-3.125-1.4-3.125-3.125-3.125z"/><path d="m428.044 213.366c-1.726 0-3.125 1.399-3.125 3.125s1.399 3.125 3.125 3.125 3.125-1.399 3.125-3.125-1.399-3.125-3.125-3.125z"/><path d="m438.496 223.06c-1.726 0-3.125 1.399-3.125 3.125s1.399 3.125 3.125 3.125 3.125-1.399 3.125-3.125-1.4-3.125-3.125-3.125z"/><path d="m428.044 233.512c-1.726 0-3.125 1.399-3.125 3.125s1.399 3.125 3.125 3.125 3.125-1.399 3.125-3.125c0-1.727-1.399-3.125-3.125-3.125z"/><path d="m438.496 243.205c-1.726 0-3.125 1.399-3.125 3.125s1.399 3.125 3.125 3.125 3.125-1.399 3.125-3.125-1.4-3.125-3.125-3.125z"/><path d="m428.044 253.657c-1.726 0-3.125 1.399-3.125 3.125s1.399 3.125 3.125 3.125 3.125-1.399 3.125-3.125-1.399-3.125-3.125-3.125z"/><path d="m438.496 263.35c-1.726 0-3.125 1.399-3.125 3.125s1.399 3.125 3.125 3.125 3.125-1.399 3.125-3.125-1.4-3.125-3.125-3.125z"/><path d="m428.044 273.802c-1.726 0-3.125 1.399-3.125 3.125s1.399 3.125 3.125 3.125 3.125-1.399 3.125-3.125-1.399-3.125-3.125-3.125z"/><path d="m438.496 283.496c-1.726 0-3.125 1.399-3.125 3.125s1.399 3.125 3.125 3.125 3.125-1.399 3.125-3.125-1.4-3.125-3.125-3.125z"/><path d="m428.044 293.948c-1.726 0-3.125 1.399-3.125 3.125s1.399 3.125 3.125 3.125 3.125-1.399 3.125-3.125c0-1.727-1.399-3.125-3.125-3.125z"/><path d="m438.496 303.641c-1.726 0-3.125 1.399-3.125 3.125s1.399 3.125 3.125 3.125 3.125-1.399 3.125-3.125-1.4-3.125-3.125-3.125z"/><path d="m428.044 314.093c-1.726 0-3.125 1.399-3.125 3.125s1.399 3.125 3.125 3.125 3.125-1.399 3.125-3.125-1.399-3.125-3.125-3.125z"/><path d="m438.496 323.786c-1.726 0-3.125 1.399-3.125 3.125s1.399 3.125 3.125 3.125 3.125-1.399 3.125-3.125-1.4-3.125-3.125-3.125z"/><path d="m428.044 334.238c-1.726 0-3.125 1.399-3.125 3.125s1.399 3.125 3.125 3.125 3.125-1.399 3.125-3.125-1.399-3.125-3.125-3.125z"/><path d="m438.496 343.932c-1.726 0-3.125 1.399-3.125 3.125s1.399 3.125 3.125 3.125 3.125-1.399 3.125-3.125-1.4-3.125-3.125-3.125z"/><path d="m428.044 354.384c-1.726 0-3.125 1.399-3.125 3.125s1.399 3.125 3.125 3.125 3.125-1.399 3.125-3.125-1.399-3.125-3.125-3.125z"/><path d="m438.496 364.077c-1.726 0-3.125 1.399-3.125 3.125s1.399 3.125 3.125 3.125 3.125-1.399 3.125-3.125-1.4-3.125-3.125-3.125z"/><path d="m428.044 374.529c-1.726 0-3.125 1.399-3.125 3.125s1.399 3.125 3.125 3.125 3.125-1.399 3.125-3.125-1.399-3.125-3.125-3.125z"/><path d="m438.496 384.222c-1.726 0-3.125 1.399-3.125 3.125s1.399 3.125 3.125 3.125 3.125-1.399 3.125-3.125-1.4-3.125-3.125-3.125z"/><path d="m428.044 394.674c-1.726 0-3.125 1.399-3.125 3.125s1.399 3.125 3.125 3.125 3.125-1.399 3.125-3.125-1.399-3.125-3.125-3.125z"/><path d="m438.496 404.368c-1.726 0-3.125 1.399-3.125 3.125s1.399 3.125 3.125 3.125 3.125-1.399 3.125-3.125-1.4-3.125-3.125-3.125z"/><path d="m428.044 414.82c-1.726 0-3.125 1.399-3.125 3.125s1.399 3.125 3.125 3.125 3.125-1.399 3.125-3.125-1.399-3.125-3.125-3.125z"/><path d="m418.35 142.478c-1.726 0-3.125 1.399-3.125 3.125s1.399 3.125 3.125 3.125 3.125-1.399 3.125-3.125-1.399-3.125-3.125-3.125z"/><path d="m418.35 283.496c-1.726 0-3.125 1.399-3.125 3.125s1.399 3.125 3.125 3.125 3.125-1.399 3.125-3.125-1.399-3.125-3.125-3.125z"/><path d="m418.35 303.641c-1.726 0-3.125 1.399-3.125 3.125s1.399 3.125 3.125 3.125 3.125-1.399 3.125-3.125-1.399-3.125-3.125-3.125z"/><path d="m407.898 314.093c-1.726 0-3.125 1.399-3.125 3.125s1.399 3.125 3.125 3.125 3.125-1.399 3.125-3.125-1.399-3.125-3.125-3.125z"/><path d="m418.35 323.786c-1.726 0-3.125 1.399-3.125 3.125s1.399 3.125 3.125 3.125 3.125-1.399 3.125-3.125-1.399-3.125-3.125-3.125z"/><path d="m407.898 334.238c-1.726 0-3.125 1.399-3.125 3.125s1.399 3.125 3.125 3.125 3.125-1.399 3.125-3.125-1.399-3.125-3.125-3.125z"/><path d="m418.35 343.932c-1.726 0-3.125 1.399-3.125 3.125s1.399 3.125 3.125 3.125 3.125-1.399 3.125-3.125-1.399-3.125-3.125-3.125z"/><path d="m407.898 354.384c-1.726 0-3.125 1.399-3.125 3.125s1.399 3.125 3.125 3.125 3.125-1.399 3.125-3.125-1.399-3.125-3.125-3.125z"/><path d="m418.35 364.077c-1.726 0-3.125 1.399-3.125 3.125s1.399 3.125 3.125 3.125 3.125-1.399 3.125-3.125-1.399-3.125-3.125-3.125z"/><path d="m407.898 374.529c-1.726 0-3.125 1.399-3.125 3.125s1.399 3.125 3.125 3.125 3.125-1.399 3.125-3.125-1.399-3.125-3.125-3.125z"/><path d="m418.35 384.222c-1.726 0-3.125 1.399-3.125 3.125s1.399 3.125 3.125 3.125 3.125-1.399 3.125-3.125-1.399-3.125-3.125-3.125z"/><path d="m407.898 394.674c-1.726 0-3.125 1.399-3.125 3.125s1.399 3.125 3.125 3.125 3.125-1.399 3.125-3.125-1.399-3.125-3.125-3.125z"/><path d="m418.35 404.368c-1.726 0-3.125 1.399-3.125 3.125s1.399 3.125 3.125 3.125 3.125-1.399 3.125-3.125-1.399-3.125-3.125-3.125z"/><path d="m407.898 414.82c-1.726 0-3.125 1.399-3.125 3.125s1.399 3.125 3.125 3.125 3.125-1.399 3.125-3.125-1.399-3.125-3.125-3.125z"/><path d="m418.35 424.513c-1.726 0-3.125 1.399-3.125 3.125s1.399 3.125 3.125 3.125 3.125-1.399 3.125-3.125-1.399-3.125-3.125-3.125z"/><path d="m407.898 434.965c-1.726 0-3.125 1.399-3.125 3.125s1.399 3.125 3.125 3.125 3.125-1.399 3.125-3.125-1.399-3.125-3.125-3.125z"/><path d="m398.205 343.932c-1.726 0-3.125 1.399-3.125 3.125s1.399 3.125 3.125 3.125 3.125-1.399 3.125-3.125-1.399-3.125-3.125-3.125z"/><path d="m398.205 364.077c-1.726 0-3.125 1.399-3.125 3.125s1.399 3.125 3.125 3.125 3.125-1.399 3.125-3.125-1.399-3.125-3.125-3.125z"/><path d="m387.753 374.529c-1.726 0-3.125 1.399-3.125 3.125s1.399 3.125 3.125 3.125 3.125-1.399 3.125-3.125-1.399-3.125-3.125-3.125z"/><path d="m398.205 384.222c-1.726 0-3.125 1.399-3.125 3.125s1.399 3.125 3.125 3.125 3.125-1.399 3.125-3.125-1.399-3.125-3.125-3.125z"/><path d="m387.753 394.674c-1.726 0-3.125 1.399-3.125 3.125s1.399 3.125 3.125 3.125 3.125-1.399 3.125-3.125-1.399-3.125-3.125-3.125z"/><path d="m398.205 404.368c-1.726 0-3.125 1.399-3.125 3.125s1.399 3.125 3.125 3.125 3.125-1.399 3.125-3.125-1.399-3.125-3.125-3.125z"/><path d="m387.753 414.82c-1.726 0-3.125 1.399-3.125 3.125s1.399 3.125 3.125 3.125 3.125-1.399 3.125-3.125-1.399-3.125-3.125-3.125z"/><path d="m398.205 424.513c-1.726 0-3.125 1.399-3.125 3.125s1.399 3.125 3.125 3.125 3.125-1.399 3.125-3.125-1.399-3.125-3.125-3.125z"/><path d="m387.753 434.965c-1.726 0-3.125 1.399-3.125 3.125s1.399 3.125 3.125 3.125 3.125-1.399 3.125-3.125-1.399-3.125-3.125-3.125z"/><path d="m398.205 444.658c-1.726 0-3.125 1.399-3.125 3.125s1.399 3.125 3.125 3.125 3.125-1.399 3.125-3.125-1.399-3.125-3.125-3.125z"/><path d="m387.753 455.11c-1.726 0-3.125 1.399-3.125 3.125s1.399 3.125 3.125 3.125 3.125-1.399 3.125-3.125-1.399-3.125-3.125-3.125z"/><path d="m378.06 384.222c-1.725 0-3.125 1.399-3.125 3.125s1.399 3.125 3.125 3.125 3.125-1.399 3.125-3.125-1.4-3.125-3.125-3.125z"/><path d="m367.608 394.674c-1.726 0-3.125 1.399-3.125 3.125s1.399 3.125 3.125 3.125 3.125-1.399 3.125-3.125-1.399-3.125-3.125-3.125z"/><path d="m378.06 404.368c-1.725 0-3.125 1.399-3.125 3.125s1.399 3.125 3.125 3.125 3.125-1.399 3.125-3.125-1.4-3.125-3.125-3.125z"/><path d="m367.608 414.82c-1.726 0-3.125 1.399-3.125 3.125s1.399 3.125 3.125 3.125 3.125-1.399 3.125-3.125-1.399-3.125-3.125-3.125z"/><path d="m378.06 424.513c-1.725 0-3.125 1.399-3.125 3.125s1.399 3.125 3.125 3.125 3.125-1.399 3.125-3.125-1.4-3.125-3.125-3.125z"/><path d="m367.608 434.965c-1.726 0-3.125 1.399-3.125 3.125s1.399 3.125 3.125 3.125 3.125-1.399 3.125-3.125-1.399-3.125-3.125-3.125z"/><path d="m378.06 444.658c-1.725 0-3.125 1.399-3.125 3.125s1.399 3.125 3.125 3.125 3.125-1.399 3.125-3.125-1.4-3.125-3.125-3.125z"/><path d="m367.608 455.11c-1.726 0-3.125 1.399-3.125 3.125s1.399 3.125 3.125 3.125 3.125-1.399 3.125-3.125-1.399-3.125-3.125-3.125z"/><path d="m378.06 464.804c-1.725 0-3.125 1.399-3.125 3.125s1.399 3.125 3.125 3.125 3.125-1.399 3.125-3.125-1.4-3.125-3.125-3.125z"/><path d="m367.608 475.256c-1.726 0-3.125 1.399-3.125 3.125s1.399 3.125 3.125 3.125 3.125-1.399 3.125-3.125-1.399-3.125-3.125-3.125z"/><path d="m357.914 404.368c-1.726 0-3.125 1.399-3.125 3.125s1.399 3.125 3.125 3.125 3.125-1.399 3.125-3.125-1.399-3.125-3.125-3.125z"/><path d="m347.462 414.82c-1.726 0-3.125 1.399-3.125 3.125s1.399 3.125 3.125 3.125 3.125-1.399 3.125-3.125-1.399-3.125-3.125-3.125z"/><path d="m357.914 424.513c-1.726 0-3.125 1.399-3.125 3.125s1.399 3.125 3.125 3.125 3.125-1.399 3.125-3.125-1.399-3.125-3.125-3.125z"/><path d="m347.462 434.965c-1.726 0-3.125 1.399-3.125 3.125s1.399 3.125 3.125 3.125 3.125-1.399 3.125-3.125-1.399-3.125-3.125-3.125z"/><path d="m357.914 444.658c-1.726 0-3.125 1.399-3.125 3.125s1.399 3.125 3.125 3.125 3.125-1.399 3.125-3.125-1.399-3.125-3.125-3.125z"/><path d="m347.462 455.11c-1.726 0-3.125 1.399-3.125 3.125s1.399 3.125 3.125 3.125 3.125-1.399 3.125-3.125-1.399-3.125-3.125-3.125z"/><path d="m357.914 464.804c-1.726 0-3.125 1.399-3.125 3.125s1.399 3.125 3.125 3.125 3.125-1.399 3.125-3.125-1.399-3.125-3.125-3.125z"/><path d="m347.462 475.256c-1.726 0-3.125 1.399-3.125 3.125s1.399 3.125 3.125 3.125 3.125-1.399 3.125-3.125-1.399-3.125-3.125-3.125z"/><path d="m357.914 484.949c-1.726 0-3.125 1.399-3.125 3.125s1.399 3.125 3.125 3.125 3.125-1.399 3.125-3.125-1.399-3.125-3.125-3.125z"/><path d="m337.769 424.513c-1.726 0-3.125 1.399-3.125 3.125s1.399 3.125 3.125 3.125 3.125-1.399 3.125-3.125-1.399-3.125-3.125-3.125z"/><path d="m327.317 434.965c-1.726 0-3.125 1.399-3.125 3.125s1.399 3.125 3.125 3.125 3.125-1.399 3.125-3.125-1.399-3.125-3.125-3.125z"/><path d="m337.769 444.658c-1.726 0-3.125 1.399-3.125 3.125s1.399 3.125 3.125 3.125 3.125-1.399 3.125-3.125-1.399-3.125-3.125-3.125z"/><path d="m327.317 455.11c-1.726 0-3.125 1.399-3.125 3.125s1.399 3.125 3.125 3.125 3.125-1.399 3.125-3.125-1.399-3.125-3.125-3.125z"/><path d="m337.769 464.804c-1.726 0-3.125 1.399-3.125 3.125s1.399 3.125 3.125 3.125 3.125-1.399 3.125-3.125-1.399-3.125-3.125-3.125z"/><path d="m327.317 475.256c-1.726 0-3.125 1.399-3.125 3.125s1.399 3.125 3.125 3.125 3.125-1.399 3.125-3.125-1.399-3.125-3.125-3.125z"/><path d="m337.769 484.949c-1.726 0-3.125 1.399-3.125 3.125s1.399 3.125 3.125 3.125 3.125-1.399 3.125-3.125-1.399-3.125-3.125-3.125z"/><path d="m327.317 495.401c-1.726 0-3.125 1.399-3.125 3.125s1.399 3.125 3.125 3.125 3.125-1.399 3.125-3.125-1.399-3.125-3.125-3.125z"/><path d="m317.624 444.658c-1.726 0-3.125 1.399-3.125 3.125s1.399 3.125 3.125 3.125 3.125-1.399 3.125-3.125-1.4-3.125-3.125-3.125z"/><path d="m307.172 455.11c-1.726 0-3.125 1.399-3.125 3.125s1.399 3.125 3.125 3.125 3.125-1.399 3.125-3.125-1.4-3.125-3.125-3.125z"/><path d="m317.624 464.804c-1.726 0-3.125 1.399-3.125 3.125s1.399 3.125 3.125 3.125 3.125-1.399 3.125-3.125-1.4-3.125-3.125-3.125z"/><path d="m307.172 475.256c-1.726 0-3.125 1.399-3.125 3.125s1.399 3.125 3.125 3.125 3.125-1.399 3.125-3.125-1.4-3.125-3.125-3.125z"/><path d="m317.624 484.949c-1.726 0-3.125 1.399-3.125 3.125s1.399 3.125 3.125 3.125 3.125-1.399 3.125-3.125-1.4-3.125-3.125-3.125z"/><path d="m307.172 495.401c-1.726 0-3.125 1.399-3.125 3.125s1.399 3.125 3.125 3.125 3.125-1.399 3.125-3.125-1.4-3.125-3.125-3.125z"/><path d="m297.478 444.658c-1.726 0-3.125 1.399-3.125 3.125s1.399 3.125 3.125 3.125 3.125-1.399 3.125-3.125-1.399-3.125-3.125-3.125z"/><path d="m287.026 455.11c-1.726 0-3.125 1.399-3.125 3.125s1.399 3.125 3.125 3.125 3.125-1.399 3.125-3.125-1.399-3.125-3.125-3.125z"/><path d="m297.478 464.804c-1.726 0-3.125 1.399-3.125 3.125s1.399 3.125 3.125 3.125 3.125-1.399 3.125-3.125-1.399-3.125-3.125-3.125z"/><path d="m287.026 475.256c-1.726 0-3.125 1.399-3.125 3.125s1.399 3.125 3.125 3.125 3.125-1.399 3.125-3.125-1.399-3.125-3.125-3.125z"/><path d="m297.478 484.949c-1.726 0-3.125 1.399-3.125 3.125s1.399 3.125 3.125 3.125 3.125-1.399 3.125-3.125-1.399-3.125-3.125-3.125z"/><path d="m266.881 455.11c-1.726 0-3.125 1.399-3.125 3.125s1.399 3.125 3.125 3.125 3.125-1.399 3.125-3.125-1.399-3.125-3.125-3.125z"/><path d="m277.333 464.804c-1.726 0-3.125 1.399-3.125 3.125s1.399 3.125 3.125 3.125 3.125-1.399 3.125-3.125-1.399-3.125-3.125-3.125z"/><path d="m266.881 475.256c-1.726 0-3.125 1.399-3.125 3.125s1.399 3.125 3.125 3.125 3.125-1.399 3.125-3.125-1.399-3.125-3.125-3.125z"/><path d="m277.333 484.949c-1.726 0-3.125 1.399-3.125 3.125s1.399 3.125 3.125 3.125 3.125-1.399 3.125-3.125-1.399-3.125-3.125-3.125z"/><path d="m246.736 475.256c-1.726 0-3.125 1.399-3.125 3.125s1.399 3.125 3.125 3.125 3.125-1.399 3.125-3.125-1.4-3.125-3.125-3.125z"/><path d="m257.188 484.949c-1.726 0-3.125 1.399-3.125 3.125s1.399 3.125 3.125 3.125 3.125-1.399 3.125-3.125-1.4-3.125-3.125-3.125z"/><path d="m237.042 484.949c-1.726 0-3.125 1.399-3.125 3.125s1.399 3.125 3.125 3.125 3.125-1.399 3.125-3.125-1.399-3.125-3.125-3.125z"/><path d="m216.897 484.949c-1.726 0-3.125 1.399-3.125 3.125s1.399 3.125 3.125 3.125 3.125-1.399 3.125-3.125-1.399-3.125-3.125-3.125z"/><path d="m206.445 495.401c-1.726 0-3.125 1.399-3.125 3.125s1.399 3.125 3.125 3.125 3.125-1.399 3.125-3.125-1.399-3.125-3.125-3.125z"/><path d="m196.751 484.949c-1.726 0-3.125 1.399-3.125 3.125s1.399 3.125 3.125 3.125 3.125-1.399 3.125-3.125-1.399-3.125-3.125-3.125z"/><path d="m186.3 495.401c-1.726 0-3.125 1.399-3.125 3.125s1.399 3.125 3.125 3.125 3.125-1.399 3.125-3.125-1.4-3.125-3.125-3.125z"/><path d="m166.154 475.256c-1.726 0-3.125 1.399-3.125 3.125s1.399 3.125 3.125 3.125 3.125-1.399 3.125-3.125-1.399-3.125-3.125-3.125z"/><path d="m176.606 484.949c-1.726 0-3.125 1.399-3.125 3.125s1.399 3.125 3.125 3.125 3.125-1.399 3.125-3.125-1.399-3.125-3.125-3.125z"/><path d="m166.154 495.401c-1.726 0-3.125 1.399-3.125 3.125s1.399 3.125 3.125 3.125 3.125-1.399 3.125-3.125-1.399-3.125-3.125-3.125z"/><path d="m146.009 475.256c-1.726 0-3.125 1.399-3.125 3.125s1.399 3.125 3.125 3.125 3.125-1.399 3.125-3.125-1.399-3.125-3.125-3.125z"/><path d="m156.461 484.949c-1.726 0-3.125 1.399-3.125 3.125s1.399 3.125 3.125 3.125 3.125-1.399 3.125-3.125-1.399-3.125-3.125-3.125z"/><path d="m125.864 455.11c-1.726 0-3.125 1.399-3.125 3.125s1.399 3.125 3.125 3.125 3.125-1.399 3.125-3.125-1.4-3.125-3.125-3.125z"/><path d="m136.315 464.804c-1.726 0-3.125 1.399-3.125 3.125s1.399 3.125 3.125 3.125 3.125-1.399 3.125-3.125-1.399-3.125-3.125-3.125z"/><path d="m387.753 360.633c1.726 0 3.125-1.399 3.125-3.125s-1.399-3.125-3.125-3.125-3.125 1.399-3.125 3.125 1.399 3.125 3.125 3.125z"/><path d="m421.475 266.475c0-1.726-1.399-3.125-3.125-3.125s-3.125 1.399-3.125 3.125 1.399 3.125 3.125 3.125 3.125-1.399 3.125-3.125z"/><path d="m260 144.335c0-1.513-.854-2.896-2.205-3.575-2.814-1.413-69.492-34.26-120.553-5.744-52.935 29.561-75.52 69.706-75.52 134.236 0 42.422 8.382 83.073 24.24 117.559 14.14 30.75 33.433 55.292 57.527 73.259.373.511.896.897 1.505 1.107 2.773 2.02 5.606 3.957 8.503 5.804-.096.301-.162.615-.162.947 0 1.726 1.399 3.125 3.125 3.125.86 0 1.639-.348 2.204-.911 2.331 1.371 4.697 2.693 7.104 3.957 5.251 2.756 11.227 4.405 17.588 5.293.422 1.226 1.573 2.113 2.943 2.113 1.138 0 2.124-.615 2.671-1.524 2.564.185 5.171.271 7.805.271 2.332 0 4.684-.08 7.04-.196.555.868 1.522 1.448 2.63 1.448 1.247 0 2.316-.736 2.816-1.793 4.803-.378 9.581-.914 14.222-1.507-.003.059-.018.115-.018.175 0 1.726 1.399 3.125 3.125 3.125s3.125-1.399 3.125-3.125c0-.344-.069-.669-.172-.979 1.041-.142 2.084-.285 3.104-.425 8.842-1.218 17.193-2.368 23.353-2.368 2.209 0 4-1.791 4-4v-1.34c.195-.408.313-.858.313-1.34s-.118-.933-.313-1.34zm-8 322.393c-5.983.332-13.048 1.305-20.444 2.323-20.536 2.828-46.092 6.349-62.069-2.036-62.47-32.784-99.765-106.715-99.765-197.763 0-61.239 21.359-99.295 71.42-127.252 13.812-7.713 29.127-10.448 43.92-10.448 30.621 0 58.977 11.734 66.938 15.327z"/><path d="m462.266 166.778c-14.613-25.155-36.671-45.216-67.432-61.329-1.407-.737-2.833-1.437-4.271-2.115 22.779-22.404 32.31-48.944 24.939-65.71-3.429-7.802-10.974-14.049-21.816-18.066-23.98-8.885-58.731-5.394-88.527 8.891-23.785 11.404-39.32 33.514-48.935 52.859l-10.222-68.023c-.66-4.387-3.165-8.298-6.875-10.73-3.709-2.433-8.296-3.172-12.581-2.028l-6.133 1.637c-4.027 1.075-7.395 3.654-9.483 7.261s-2.646 7.813-1.572 11.84l21.481 80.501c-6.207-1.967-13.252-3.917-20.896-5.558-36.462-7.828-68.9-4.615-93.805 9.293-62.243 34.759-88.8 81.971-88.8 157.867 0 49.982 9.874 97.873 28.553 138.495 21.493 46.74 53.088 81.301 93.909 102.724 21.342 11.201 53.054 6.834 78.535 3.324 10.462-1.441 20.345-2.802 27.663-2.802 7.422 0 17.394 1.416 27.952 2.916 13.148 1.868 27.979 3.976 42.158 3.975 12.821-.001 25.108-1.724 35.12-6.907 41.143-21.3 72.991-55.871 94.659-102.753 18.823-40.726 28.773-88.781 28.773-138.972.001-39.053-7.324-70.648-22.394-96.59zm-153.623-131.063c27.926-13.389 60.207-16.764 82.244-8.602 8.748 3.241 14.708 7.997 17.239 13.752v.001c4.244 9.654.883 24.396-8.99 39.433-4.57 6.96-10.216 13.543-16.698 19.577-24.489-9.334-52.853-10.726-82.893-3.946-17.568 3.966-31.507 9.717-39.129 13.266l-1.961-13.046c8.293-20.077 23.942-47.852 50.188-60.435zm-91.499-16.528c-1.126-3.898 1.405-8.273 5.346-9.238l6.133-1.637c4.2-1.232 8.866 1.827 9.409 6.17l14.322 95.303c-3.027-1.32-7.221-3.046-12.343-4.905zm233.228 376.381c-.564-.551-1.332-.893-2.183-.893-1.726 0-3.125 1.399-3.125 3.125 0 1.629 1.251 2.951 2.842 3.096-5.769 12.134-12.353 23.528-19.715 34.083-.05-.002-.097-.014-.148-.014-1.726 0-3.125 1.399-3.125 3.125 0 .406.083.791.224 1.147-1.545 2.107-3.121 4.181-4.729 6.216-.552-.489-1.269-.795-2.064-.795-1.726 0-3.125 1.399-3.125 3.125 0 1.023.498 1.922 1.257 2.492-1.887 2.25-3.812 4.454-5.779 6.608-.505-1.045-1.566-1.772-2.805-1.772-1.726 0-3.125 1.399-3.125 3.125 0 1.305.802 2.421 1.938 2.888-1.843 1.905-3.719 3.769-5.627 5.591-.474-1.123-1.585-1.911-2.88-1.911-1.726 0-3.125 1.399-3.125 3.125 0 1.213.699 2.253 1.708 2.77-2.172 1.954-4.381 3.86-6.632 5.707-.573-.697-1.431-1.15-2.404-1.15-1.726 0-3.125 1.399-3.125 3.125 0 .713.248 1.362.65 1.887-2.134 1.638-4.3 3.229-6.499 4.772-.232-.055-.47-.091-.719-.091-1.578 0-2.869 1.174-3.081 2.693-5.618 3.74-11.437 7.179-17.454 10.294-2.652 1.374-5.529 2.46-8.57 3.319.969-.53 1.634-1.547 1.634-2.73 0-1.726-1.399-3.125-3.125-3.125s-3.125 1.399-3.125 3.125 1.399 3.125 3.125 3.125c.017 0 .033-.005.05-.005-17.069 4.336-39.109 1.68-58.202-1 .517-.558.841-1.299.841-2.119 0-1.726-1.399-3.125-3.125-3.125s-3.125 1.399-3.125 3.125c0 .507.132.979.347 1.403-4.953-.703-9.769-1.379-14.293-1.9-.24-1.488-1.519-2.628-3.075-2.628-1.34 0-2.474.848-2.918 2.033-2.828-.234-5.512-.383-7.964-.383-1.993 0-4.133.091-6.39.249-.477-1.116-1.583-1.898-2.873-1.898-1.487 0-2.726 1.04-3.042 2.432-4.465.471-9.245 1.106-14.186 1.784.127-.341.207-.705.207-1.09 0-1.726-1.399-3.125-3.125-3.125s-3.125 1.399-3.125 3.125c0 .689.23 1.32.608 1.836-23.756 3.25-52.289 6.662-70.528-2.911-4.897-2.57-9.66-5.36-14.292-8.348.113-.324.188-.667.188-1.029 0-1.726-1.399-3.125-3.125-3.125-.8 0-1.522.31-2.075.804-2.238-1.549-4.445-3.146-6.617-4.792.823-.563 1.365-1.508 1.365-2.58 0-1.726-1.399-3.125-3.125-3.125-1.34 0-2.475.848-2.918 2.034-2.517-2.035-4.988-4.134-7.409-6.301.205.042.416.065.633.065 1.726 0 3.125-1.399 3.125-3.125s-1.399-3.125-3.125-3.125-3.125 1.399-3.125 3.125c0 .326.064.633.156.928-2.625-2.428-5.19-4.936-7.694-7.518.071.005.139.021.211.021 1.726 0 3.125-1.399 3.125-3.125s-1.399-3.125-3.125-3.125-3.125 1.399-3.125 3.125c0 .014.004.027.004.04-2.23-2.398-4.415-4.851-6.545-7.37 1.713-.015 3.097-1.406 3.097-3.122 0-1.726-1.399-3.125-3.125-3.125-1.512 0-2.772 1.073-3.062 2.5-36.837-45.671-57.566-109.98-57.566-183.79 0-72.581 25.322-117.689 84.67-150.832 56.207-31.387 133.354 6.576 134.126 6.963 1.188.596 2.598.567 3.761-.079.179-.099 18.178-9.98 43.591-15.682 23.206-5.206 57.58-7.898 89.548 8.849 12.841 6.726 24.133 14.187 33.95 22.493-.073.266-.125.54-.125.829 0 1.726 1.399 3.125 3.125 3.125.434 0 .847-.089 1.222-.249 2.155 1.965 4.213 3.987 6.213 6.044-.064.249-.108.505-.108.774 0 1.726 1.399 3.125 3.125 3.125.198 0 .391-.023.579-.058 2.094 2.324 4.101 4.703 6.013 7.144-.006.081-.023.158-.023.241 0 1.529 1.099 2.796 2.549 3.067 7.75 10.562 13.864 22.219 18.451 35.087-.527.559-.855 1.308-.855 2.137 0 1.548 1.129 2.825 2.607 3.072 5.919 18.696 8.786 39.868 8.786 63.949 0 24.94-2.367 48.784-6.914 71.191-.411-.199-.867-.32-1.354-.32-1.726 0-3.125 1.399-3.125 3.125s1.399 3.125 3.125 3.125c.034 0 .066-.009.1-.01-1.955 8.78-4.253 17.328-6.878 25.624-.446-1.181-1.578-2.025-2.915-2.025-1.725 0-3.125 1.399-3.125 3.125s1.399 3.125 3.125 3.125c.632 0 1.218-.191 1.71-.514-2.945 8.891-6.274 17.487-9.976 25.753z"/><path d="m180.859 240.418c-6.908 6.907-9.032 19.544 5.72 34.296 9.32 9.32 25.67 13.496 34.587 15.155.479.089.96.133 1.438.133 2.061 0 4.06-.812 5.543-2.296 1.828-1.827 2.635-4.438 2.162-6.981-1.659-8.916-5.833-25.265-15.155-34.588-14.751-14.75-27.389-12.627-34.295-5.719z"/><path d="m223.384 317.573c-9.053.545-25.793 2.67-36.194 10.77-7.039 5.482-11.444 11.271-13.09 17.206-1.589 5.722-.459 11.448 3.181 16.122 3.161 4.059 8.062 6.997 14.4 6.997 5.695 0 12.551-2.374 20.34-8.44 10.399-8.098 16.561-23.808 19.309-32.453.783-2.467.303-5.157-1.286-7.195-1.587-2.04-4.089-3.169-6.66-3.007z"/></g></svg>