<svg id="_x33_0" enable-background="new 0 0 64 64" height="512" viewBox="0 0 64 64" width="512" xmlns="http://www.w3.org/2000/svg"><g><path d="m58.981 47.559-2.31-.33c-.854-.122-1.684-.439-2.401-.917-1.286-.859-2.784-1.312-4.332-1.312h-.997c-.321-.379-.667-.74-1.056-1.064-2.272-1.893-5.152-2.936-8.11-2.936h-1.551c-.124 0-.247.013-.371.016 2.062-4.177 3.147-8.981 3.147-14.016 0-14.337-8.972-26-20-26s-20 11.663-20 26c0 11.469 5.749 21.488 14.087 24.825-.053.266-.087.539-.087.82 0 1.83 1.229 3.46 2.99 3.965l1.967.562c1.701.485 3.253 1.307 4.613 2.44 2.623 2.185 5.948 3.388 9.362 3.388h2.832c1.616 0 3.235-.382 4.683-1.105 1.171-.585 2.481-.895 3.789-.895h.813c2.766 0 5.481-.752 7.853-2.175.995-.598 2.064-1.062 3.18-1.38l2.494-.712c2.016-.577 3.424-2.444 3.424-4.541 0-2.314-1.728-4.306-4.019-4.633zm-19.206-4.559c2.491 0 4.916.878 6.83 2.473 1.522 1.268 2.395 3.131 2.395 5.113 0 .645-.251 1.251-.708 1.707-.455.456-1.061.707-1.706.707h-15.172c-.645 0-1.251-.251-1.707-.707s-.707-1.063-.707-1.707c0-1.981.873-3.845 2.395-5.113 1.914-1.595 4.339-2.473 6.83-2.473zm-36.775-16c0-13.233 8.075-24 18-24s18 10.767 18 24c0 5.222-1.243 10.162-3.581 14.328-1.937.441-3.762 1.323-5.305 2.608-.388.324-.734.685-1.055 1.064h-.171c-2.076 0-4.135.687-5.798 1.933-.978.733-2.132 1.228-3.337 1.429l-1.308.218c-1.014.169-1.884.696-2.497 1.437-7.657-2.985-12.948-12.301-12.948-23.017zm56.026 27.81-2.494.712c-1.284.367-2.515.901-3.66 1.589-2.06 1.236-4.42 1.89-6.824 1.89h-.813c-1.616 0-3.235.382-4.683 1.105-1.17.584-2.48.894-3.788.894h-2.832c-2.947 0-5.817-1.039-8.081-2.926-1.576-1.313-3.374-2.264-5.344-2.827l-1.967-.561c-.907-.26-1.54-1.1-1.54-2.042 0-1.041.746-1.922 1.773-2.093l1.308-.218c1.521-.254 2.977-.877 4.208-1.802 1.011-.758 2.208-1.248 3.453-1.439-.479 1.089-.742 2.272-.742 3.494 0 1.179.459 2.287 1.292 3.121s1.942 1.293 3.122 1.293h15.172c1.18 0 2.288-.459 3.122-1.293s1.292-1.942 1.292-3.121c0-1.248-.272-2.459-.772-3.565 1.047.052 2.056.37 2.932.954.963.642 2.079 1.068 3.227 1.233l2.311.33c1.312.188 2.302 1.329 2.302 2.654 0 1.209-.812 2.286-1.974 2.618z"/><path d="m29.098 11.13 1.102 1.47 1.6-1.199-1.102-1.47c-1.364-1.819-3.225-3.16-5.381-3.879l-.633 1.896c1.769.59 3.295 1.691 4.414 3.182z"/><path d="m31.471 14.939c2.276 2.845 3.529 6.418 3.529 10.061h2c0-4.096-1.409-8.112-3.968-11.311l-.252-.314-1.561 1.25z"/></g></svg>